<svg width="32" height="32" viewBox="0 0 32 32" fill="none" xmlns="http://www.w3.org/2000/svg">
  <!-- Background circle with gradient -->
  <defs>
    <linearGradient id="bg-gradient" x1="0%" y1="0%" x2="100%" y2="100%">
      <stop offset="0%" style="stop-color:#4e79a7;stop-opacity:1" />
      <stop offset="50%" style="stop-color:#59a14f;stop-opacity:1" />
      <stop offset="100%" style="stop-color:#f28e2c;stop-opacity:1" />
    </linearGradient>
    <linearGradient id="chart-gradient" x1="0%" y1="0%" x2="100%" y2="0%">
      <stop offset="0%" style="stop-color:#ffffff;stop-opacity:0.9" />
      <stop offset="50%" style="stop-color:#ffffff;stop-opacity:0.7" />
      <stop offset="100%" style="stop-color:#ffffff;stop-opacity:0.9" />
    </linearGradient>
  </defs>
  
  <!-- Background -->
  <circle cx="16" cy="16" r="15" fill="url(#bg-gradient)" stroke="#2c3e50" stroke-width="2"/>
  
  <!-- Chart elements -->
  <!-- Time axis line -->
  <line x1="6" y1="24" x2="26" y2="24" stroke="white" stroke-width="1.5" opacity="0.8"/>
  
  <!-- Timeline bars -->
  <rect x="8" y="18" width="6" height="4" fill="url(#chart-gradient)" rx="1"/>
  <rect x="12" y="14" width="8" height="4" fill="url(#chart-gradient)" rx="1"/>
  <rect x="16" y="10" width="7" height="4" fill="url(#chart-gradient)" rx="1"/>
  
  <!-- Data points -->
  <circle cx="11" cy="16" r="1.5" fill="white" opacity="0.9"/>
  <circle cx="16" cy="12" r="1.5" fill="white" opacity="0.9"/>
  <circle cx="19.5" cy="8" r="1.5" fill="white" opacity="0.9"/>
  
  <!-- Connecting line -->
  <path d="M11,16 Q13.5,14 16,12 Q17.75,10 19.5,8" stroke="white" stroke-width="1.5" fill="none" opacity="0.7"/>
  
  <!-- Axis markers -->
  <line x1="8" y1="22" x2="8" y2="26" stroke="white" stroke-width="1" opacity="0.6"/>
  <line x1="14" y1="22" x2="14" y2="26" stroke="white" stroke-width="1" opacity="0.6"/>
  <line x1="20" y1="22" x2="20" y2="26" stroke="white" stroke-width="1" opacity="0.6"/>
  <line x1="26" y1="22" x2="26" y2="26" stroke="white" stroke-width="1" opacity="0.6"/>
</svg>
